<?xml version="1.0" standalone="no"?>
<!DOCTYPE svg PUBLIC "-//W3C//DTD SVG 20010904//EN"
 "http://www.w3.org/TR/2001/REC-SVG-20010904/DTD/svg10.dtd">
<svg version="1.0" xmlns="http://www.w3.org/2000/svg"
 width="512.000000pt" height="512.000000pt" viewBox="0 0 512.000000 512.000000"
 preserveAspectRatio="xMidYMid meet">
<metadata>
Created by potrace 1.14, written by Peter Selinger 2001-2017
</metadata>
<g transform="translate(0.000000,512.000000) scale(0.100000,-0.100000)"
fill="#000000" stroke="none">
<path d="M532 5100 c-246 -65 -449 -269 -512 -516 -20 -75 -20 -120 -20 -2024
0 -1904 0 -1949 20 -2024 63 -248 268 -453 516 -516 75 -20 120 -20 2024 -20
1904 0 1949 0 2024 20 248 63 453 268 516 516 20 75 20 120 20 2024 0 1904 0
1949 -20 2024 -31 124 -91 228 -184 322 -90 90 -171 142 -285 182 l-76 27
-1975 2 c-1916 2 -1977 1 -2048 -17z m4051 -307 c77 -37 163 -116 197 -184 52
-101 50 -8 50 -2050 0 -1883 0 -1908 -20 -1972 -37 -121 -130 -221 -247 -268
l-58 -24 -1915 -3 c-1439 -2 -1929 0 -1970 9 -125 26 -236 116 -293 236 l-32
68 0 1955 0 1955 32 68 c54 113 168 210 280 236 22 5 869 8 1973 8 l1935 -2
68 -32z"/>
<path d="M1170 4256 c-186 -52 -320 -226 -320 -416 0 -283 282 -494 549 -411
82 25 138 60 193 119 163 175 155 441 -20 604 -109 102 -264 142 -402 104z"/>
<path d="M3730 4256 c-186 -52 -320 -226 -320 -416 0 -283 282 -494 549 -411
82 25 138 60 193 119 163 175 155 441 -20 604 -109 102 -264 142 -402 104z"/>
<path d="M2450 2976 c-186 -52 -320 -226 -320 -416 0 -283 282 -494 549 -411
82 25 138 60 193 119 163 175 155 441 -20 604 -109 102 -264 142 -402 104z"/>
<path d="M1170 1696 c-70 -20 -129 -54 -185 -107 -173 -163 -180 -427 -17
-601 170 -182 454 -182 624 0 163 175 155 441 -20 604 -109 102 -264 142 -402
104z"/>
<path d="M3730 1696 c-186 -52 -320 -226 -320 -416 0 -283 282 -494 549 -411
82 25 138 60 193 119 163 175 155 441 -20 604 -109 102 -264 142 -402 104z"/>
</g>
</svg>
